<svg xmlns="http://www.w3.org/2000/svg" width="280" height="240" version="1.1"><g id="display-guy"><path fill="#CCC" stroke="#333" stroke-width="3" d="M100,20 q0,20 -20,20 l-40,0 q-20,0 -20,20 l0,120 q0,20 20,20 l170,0 q20,0 20,-20 l0,-120 q0,-20 -20,-20 l-40,0 q-20,0 -20,-20"/><path fill="green" stroke="#963" stroke-width="3" d="M118,0 l15,0 l0,20 l-15,0 z"><animate id="display_green" fill="freeze" attributeName="d" attributeType="XML" begin="0;display_blue.end+1600ms" dur="400ms" from="M118,0 l15,0 l0,20 l-15,0 z" to="M118,88 l15,0 l0,20 l-15,0 z"/></path><path fill="#00f" stroke="#963" stroke-width="3" d="M118,0 l15,0 l0,20 l-15,0 z"><animate id="display_blue" fill="freeze" attributeName="d" attributeType="XML" begin="display_green.end+600ms" dur="400ms" from="M118,0 l15,0 l0,20 l-15,0 z" to="M118,88 l15,0 l0,20 l-15,0 z"/></path><path fill="#333" stroke="#111" stroke-width="3" d="M115,140 l0,10 q0,5 -5,5 l-5,0 q-3,0 -3,3 l46,0 q0,-3 -3,-3 l-5,0 q-5,0 -5,-5 l0,-10"/><path fill="#333" stroke="#111" stroke-width="3" d="M70,80 l0,60 q0,5 5,5 l100,0 q5,0 5,-5 l0,-60 q0,-5 -5,-5 l-100,0 q-5,0 -5,5"/><path fill="#EEE" stroke="#666" stroke-width="3" d="M75,85 l0,50 q0,5 5,5 l90,0 q5,0 5,-5 l0,-50 q0,-5 -5,-5 l-90,0 q-5,0 -5,5"/><path fill="#CCC" stroke="#333" stroke-width="3" d="M95,0 l60,0 l0,20 l-60,0 z"/><path fill="green" stroke="#963" stroke-width="3" d="M125,110 l0,0 l0,0 l0,0 z"><animate id="display_green_2" attributeName="d" attributeType="XML" begin="display_green.end" dur="300ms" from="M125,110 l0,0 l0,0 l0,0 z" to="M110,90 l30,0 l0,40 l-30,0 z"/><animate id="display_green_3" attributeName="d" attributeType="XML" begin="display_green_2.end" dur="200ms" from="M110,90 l30,0 l0,40 l-30,0 z" to="M118,100 l15,0 l0,20 l-15,0 z"/><animate fill="remove" attributeName="d" attributeType="XML" begin="display_green_3.end" dur="500ms" from="M118,100 l15,0 l0,20 l-15,0 z" to="M118,100 l15,0 l0,20 l-15,0 z"/></path><path fill="#00f" stroke="#963" stroke-width="3" d="M125,110 l0,0 l0,0 l0,0 z"><animate id="display_blue_2" attributeName="d" attributeType="XML" begin="display_blue.end" dur="300ms" from="M125,110 l0,0 l0,0 l0,0 z" to="M110,90 l30,0 l0,40 l-30,0 z"/><animate id="display_blue_3" attributeName="d" attributeType="XML" begin="display_blue_2.end" dur="200ms" from="M110,90 l30,0 l0,40 l-30,0 z" to="M118,100 l15,0 l0,20 l-15,0 z"/><animate fill="remove" attributeName="d" attributeType="XML" begin="display_blue_3.end" dur="500ms" from="M118,100 l15,0 l0,20 l-15,0 z" to="M118,100 l15,0 l0,20 l-15,0 z"/></path></g></svg>