<svg xmlns="http://www.w3.org/2000/svg" width="280" height="240" version="1.1"><g id="filter-guy"><path fill="#CCC" stroke="#333" stroke-width="3" d="M100,20 q0,20 -20,20 q-20,0 -20,20 l0,120 q0,20 20,20 q20,0 20,20 l50,0 q0,-20 20,-20 l80,0 q20,0 20,-20 l0,-120 q0,-20 -20,-20 l-80,0 q-20,0 -20,-20"/><path fill="#ff0" stroke="#963" stroke-width="3" d="M118,0 l15,0 l0,20 l-15,0 z"><animate id="packman_yellow" fill="remove" attributeName="d" attributeType="XML" begin="0;packman_blue.end" dur="500ms" from="M118,0 l15,0 l0,20 l-15,0 z" to="M118,120 l15,0 l0,20 l-15,0 z"/></path><path fill="green" stroke="#963" stroke-width="3" d="M118,0 l15,0 l0,20 l-15,0 z"><animate id="packman_green" fill="freeze" attributeName="d" attributeType="XML" begin="packman_yellow.end+500ms" dur="1000ms" from="M118,0 l15,0 l0,20 l-15,0 z" to="M118,220 l15,0 l0,20 l-15,0 z"/></path><path fill="#00f" stroke="#963" stroke-width="3" d="M118,0 l15,0 l0,20 l-15,0 z"><animate id="packman_blue" fill="freeze" attributeName="d" attributeType="XML" begin="packman_green.end" dur="1000ms" from="M118,0 l15,0 l0,20 l-15,0 z" to="M118,220 l15,0 l0,20 l-15,0 z"/></path><path fill="#CCC" stroke="#333" stroke-width="3" d="M95,0 l60,0 l0,20 l-60,0 z"/><path fill="#CCC" stroke="#333" stroke-width="3" d="M95,220 l60,0 l0,20 l-60,0 z"/><path fill="red" stroke="#00f" stroke-width="3" d="M200,120 l-54,-1 a56,56 0 1,1 0,2 z"><animate id="packman_body_close" fill="freeze" attributeName="d" attributeType="XML" begin="packman_body_open.end+100ms" dur="100ms" from="M200,120 l-40,-40 a56,56 0 1,1 0,80 z" to="M150,120 l-54,-1 a56,56 0 1,1 0,2 z"/><animate id="packman_body_retreat" fill="freeze" attributeName="d" attributeType="XML" begin="packman_body_close.end+200ms" dur="300ms" from="M150,120 l-54,-1 a56,56 0 1,1 0,2 z" to="M200,120 l-54,-1 a56,56 0 1,1 0,2 z"/><animate id="packman_body_open" fill="freeze" attributeName="d" attributeType="XML" begin="packman_yellow.begin" dur="300ms" from="M200,120 l-54,-1 a56,56 0 1,1 0,2 z" to="M200,120 l-40,-40 a56,56 0 1,1 0,80 z"/></path><ellipse cx="200" cy="90" fill="#ff0" stroke="#00f" stroke-width="3" rx="5" ry="5"><animate id="packman_eye_close" fill="freeze" attributeName="cx" attributeType="XML" begin="packman_body_open.end+100ms" dur="100ms" from="200" to="150"/><animate id="packman_eye_retreat" fill="freeze" attributeName="cx" attributeType="XML" begin="packman_body_close.end+200ms" dur="300ms" from="150" to="200"/></ellipse></g></svg>