<svg xmlns="http://www.w3.org/2000/svg" xmlns:xlink="http://www.w3.org/1999/xlink" width="280" height="700" version="1.1"><defs><linearGradient id="gray_grad" x1="0%" x2="100%" y1="0%" y2="0%"><stop offset="0%" style="stop-color:#b0b3b6;stop-opacity:1"/><stop offset="100%" style="stop-color:#d0d3d6;stop-opacity:1"/></linearGradient><linearGradient id="squash_grad" x1="0%" x2="0%" y1="0%" y2="100%"><stop offset="0%" style="stop-color:#101090;stop-opacity:1"/><stop offset="100%" style="stop-color:#8080ff;stop-opacity:1"/></linearGradient><linearGradient id="packman_grad" x1="0%" x2="100%" y1="0%" y2="100%"><stop offset="0%" style="stop-color:#ff8080;stop-opacity:1"/><stop offset="100%" style="stop-color:#c00000;stop-opacity:1"/></linearGradient></defs><symbol id="connector"><path fill="url(#gray_grad)" stroke="#333" stroke-width="3" d="M95,3 l60,0 l0,20 l-60,0 z"/></symbol><g id="source-component"><path fill="url(#gray_grad)" stroke="#333" stroke-width="3" d="M100,0 l50,0 l0,40 l-50,0 z" transform="translate(0,0)"/></g><g id="map-component" transform="translate(0,40)"><symbol id="map-contour"><path d="M100,20 q0,20 -20,20 l-50,0 q-20,0 -20,20 l0,120 q0,20 20,20 l50,0 q20,0 20,20 l50,0 q0,-20 20,-20 l50,0 q20,0 20,-20 l0,-120 q0,-20 -20,-20 l-50,0 q-20,0 -20,-20"/></symbol><use fill="#CCC" xlink:href="#map-contour"/><path fill="#ff0" stroke="#963" stroke-width="3"><animate id="yellow_map" fill="freeze" attributeName="d" attributeType="XML" begin="0;yellow_map_3.end+2000ms" dur="400ms" from="M110,0 l30,0 l0,10 l-30,0 z" to="M110,88 l30,0 l0,10 l-30,0 z"/><animate id="yellow_map_2" fill="freeze" attributeName="d" attributeType="XML" begin="yellow_map.end" dur="100ms" to="M118,110 l15,0 l0,20 l-15,0 z"/><animate id="yellow_map_3" fill="freeze" attributeName="d" attributeType="XML" begin="yellow_map_2.end" dur="500ms" to="M118,220 l15,0 l0,20 l-15,0 z"/></path><path fill="green" stroke="#963" stroke-width="3"><animate id="green_map" fill="freeze" attributeName="d" attributeType="XML" begin="1000ms;green_map_3.end+2000ms" dur="400ms" from="M110,0 l30,0 l0,10 l-30,0 z" to="M110,88 l30,0 l0,10 l-30,0 z"/><animate id="green_map_2" fill="freeze" attributeName="d" attributeType="XML" begin="green_map.end" dur="100ms" to="M118,110 l15,0 l0,20 l-15,0 z"/><animate id="green_map_3" fill="freeze" attributeName="d" attributeType="XML" begin="green_map_2.end" dur="500ms" to="M118,220 l15,0 l0,20 l-15,0 z"/></path><path fill="#00f" stroke="#963" stroke-width="3"><animate id="blue_map" fill="freeze" attributeName="d" attributeType="XML" begin="2000ms;blue_map_3.end+2000ms" dur="400ms" from="M110,0 l30,0 l0,10 l-30,0 z" to="M110,88 l30,0 l0,10 l-30,0 z"/><animate id="blue_map_2" fill="freeze" attributeName="d" attributeType="XML" begin="blue_map.end" dur="100ms" to="M118,110 l15,0 l0,20 l-15,0 z"/><animate id="blue_map_3" fill="freeze" attributeName="d" attributeType="XML" begin="blue_map_2.end" dur="500ms" to="M118,220 l15,0 l0,20 l-15,0 z"/></path><path fill="url(#squash_grad)" stroke="#ff0" stroke-width="3" d="M10,100 l40,0 l0,-20 l20,0 l0,80 l-20,0 l0,-20 l-40,0"><animate id="left_close" fill="freeze" attributeName="d" attributeType="XML" begin="300ms;left_open.end+300ms" dur="200ms" from="M10,100 l40,0 l0,-20 l20,0 l0,80 l-20,0 l0,-20 l-40,0" to="M10,100 l88,0 l0,-20 l20,0 l0,80 l-20,0 l0,-20 l-88,0"/><animate id="left_open" fill="freeze" attributeName="d" attributeType="XML" begin="left_close.end" dur="500ms" to="M10,100 l40,0 l0,-20 l20,0 l0,80 l-20,0 l0,-20 l-40,0"/></path><path fill="url(#squash_grad)" stroke="#ff0" stroke-width="3" d="M240,100 l-40,0 l0,-20 l-20,0 l0,80 l20,0 l0,-20 l40,0"><animate id="right_close" fill="freeze" attributeName="d" attributeType="XML" begin="300ms;left_open.end+300ms" dur="200ms" from="M240,100 l-40,0 l0,-20 l-20,0 l0,80 l20,0 l0,-20 l40,0" to="M240,100 l-88,0 l0,-20 l-20,0 l0,80 l20,0 l0,-20 l88,0"/><animate id="right_open" fill="freeze" attributeName="d" attributeType="XML" begin="left_close.end" dur="500ms" to="M240,100 l-40,0 l0,-20 l-20,0 l0,80 l20,0 l0,-20 l40,0"/></path><use fill-opacity="0" stroke="#333" stroke-width="3" xlink:href="#map-contour"/><use y="-3" xlink:href="#connector"/></g><g id="filter-component" transform="translate(0,260)"><path fill="#CCC" stroke="#333" stroke-width="3" d="M100,20 q0,20 -20,20 q-20,0 -20,20 l0,120 q0,20 20,20 q20,0 20,20 l50,0 q0,-20 20,-20 l80,0 q20,0 20,-20 l0,-120 q0,-20 -20,-20 l-80,0 q-20,0 -20,-20"/><path fill="#ff0" stroke="#963" stroke-width="3" d="M118,0 l15,0 l0,20 l-15,0 z"><animate id="packman_yellow" fill="remove" attributeName="d" attributeType="XML" begin="yellow_map_3.end;packman_blue.end" dur="500ms" from="M118,0 l15,0 l0,20 l-15,0 z" to="M118,120 l15,0 l0,20 l-15,0 z"/></path><path fill="green" stroke="#963" stroke-width="3" d="M118,0 l15,0 l0,20 l-15,0 z"><animate id="packman_green" fill="freeze" attributeName="d" attributeType="XML" begin="packman_yellow.end+500ms" dur="1000ms" from="M118,0 l15,0 l0,20 l-15,0 z" to="M118,220 l15,0 l0,20 l-15,0 z"/></path><path fill="#00f" stroke="#963" stroke-width="3" d="M118,0 l15,0 l0,20 l-15,0 z"><animate id="packman_blue" fill="freeze" attributeName="d" attributeType="XML" begin="packman_green.end" dur="1000ms" from="M118,0 l15,0 l0,20 l-15,0 z" to="M118,220 l15,0 l0,20 l-15,0 z"/></path><path fill="url(#packman_grad)" stroke="#00f" stroke-width="3" d="M200,120 l-54,-1 a56,56 0 1,1 0,2 z"><animate id="packman_body_close" fill="freeze" attributeName="d" attributeType="XML" begin="packman_body_open.end+100ms" dur="100ms" from="M200,120 l-40,-40 a56,56 0 1,1 0,80 z" to="M150,120 l-54,-1 a56,56 0 1,1 0,2 z"/><animate id="packman_body_retreat" fill="freeze" attributeName="d" attributeType="XML" begin="packman_body_close.end+200ms" dur="300ms" to="M200,120 l-54,-1 a56,56 0 1,1 0,2 z"/><animate id="packman_body_open" fill="freeze" attributeName="d" attributeType="XML" begin="packman_yellow.begin" dur="300ms" to="M200,120 l-40,-40 a56,56 0 1,1 0,80 z"/></path><ellipse cx="200" cy="90" fill="#ff0" stroke="#00f" stroke-width="3" rx="5" ry="5"><animate id="packman_eye_close" fill="freeze" attributeName="cx" attributeType="XML" begin="packman_body_open.end+100ms" dur="100ms" to="150"/><animate id="packman_eye_retreat" fill="freeze" attributeName="cx" attributeType="XML" begin="packman_body_close.end+200ms" dur="300ms" to="200"/></ellipse><use y="-3" xlink:href="#connector"/></g><g id="forEach-component" transform="translate(0,480)"><path fill="#CCC" stroke="#333" stroke-width="3" d="M100,20 q0,20 -20,20 l-40,0 q-20,0 -20,20 l0,120 q0,20 20,20 l170,0 q20,0 20,-20 l0,-120 q0,-20 -20,-20 l-40,0 q-20,0 -20,-20"/><path fill="green" stroke="#963" stroke-width="3" d="M118,0 l15,0 l0,20 l-15,0 z"><animate id="display_green" fill="freeze" attributeName="d" attributeType="XML" begin="packman_green.end;display_blue.end+1600ms" dur="400ms" from="M118,0 l15,0 l0,20 l-15,0 z" to="M118,88 l15,0 l0,20 l-15,0 z"/></path><path fill="#00f" stroke="#963" stroke-width="3" d="M118,0 l15,0 l0,20 l-15,0 z"><animate id="display_blue" fill="freeze" attributeName="d" attributeType="XML" begin="display_green.end+600ms" dur="400ms" from="M118,0 l15,0 l0,20 l-15,0 z" to="M118,88 l15,0 l0,20 l-15,0 z"/></path><path fill="#333" stroke="#111" stroke-width="3" d="M115,140 l0,10 q0,5 -5,5 l-5,0 q-3,0 -3,3 l46,0 q0,-3 -3,-3 l-5,0 q-5,0 -5,-5 l0,-10"/><path fill="#333" stroke="#111" stroke-width="3" d="M70,80 l0,60 q0,5 5,5 l100,0 q5,0 5,-5 l0,-60 q0,-5 -5,-5 l-100,0 q-5,0 -5,5"/><path fill="#EEE" stroke="#666" stroke-width="3" d="M75,85 l0,50 q0,5 5,5 l90,0 q5,0 5,-5 l0,-50 q0,-5 -5,-5 l-90,0 q-5,0 -5,5"/><path fill="green" stroke="#963" stroke-width="3" d="M125,110 l0,0 l0,0 l0,0 z"><animate id="display_green_2" attributeName="d" attributeType="XML" begin="display_green.end" dur="300ms" from="M125,110 l0,0 l0,0 l0,0 z" to="M110,90 l30,0 l0,40 l-30,0 z"/><animate id="display_green_3" attributeName="d" attributeType="XML" begin="display_green_2.end" dur="200ms" from="M110,90 l30,0 l0,40 l-30,0 z" to="M118,100 l15,0 l0,20 l-15,0 z"/><animate fill="remove" attributeName="d" attributeType="XML" begin="display_green_3.end" dur="500ms" from="M118,100 l15,0 l0,20 l-15,0 z" to="M118,100 l15,0 l0,20 l-15,0 z"/></path><path fill="#00f" stroke="#963" stroke-width="3" d="M125,110 l0,0 l0,0 l0,0 z"><animate id="display_blue_2" attributeName="d" attributeType="XML" begin="display_blue.end" dur="300ms" from="M125,110 l0,0 l0,0 l0,0 z" to="M110,90 l30,0 l0,40 l-30,0 z"/><animate id="display_blue_3" attributeName="d" attributeType="XML" begin="display_blue_2.end" dur="200ms" from="M110,90 l30,0 l0,40 l-30,0 z" to="M118,100 l15,0 l0,20 l-15,0 z"/><animate fill="remove" attributeName="d" attributeType="XML" begin="display_blue_3.end" dur="500ms" from="M118,100 l15,0 l0,20 l-15,0 z" to="M118,100 l15,0 l0,20 l-15,0 z"/></path><use y="-3" xlink:href="#connector"/></g></svg>