<svg xmlns="http://www.w3.org/2000/svg" width="280" height="240" version="1.1"><g id="map-guy"><path fill="#CCC" stroke="#333" stroke-width="3" d="M100,20 q0,20 -20,20 l-50,0 q-20,0 -20,20 l0,120 q0,20 20,20 l50,0 q20,0 20,20 l50,0 q0,-20 20,-20 l50,0 q20,0 20,-20 l0,-120 q0,-20 -20,-20 l-50,0 q-20,0 -20,-20"/><path fill="#ff0" stroke="#963" stroke-width="3" d="M110,0 l30,0 l0,10 l-30,0 z"><animate id="yellow_map" fill="freeze" attributeName="d" attributeType="XML" begin="0;yellow_map_3.end+2000ms" dur="400ms" from="M110,0 l30,0 l0,10 l-30,0 z" to="M110,88 l30,0 l0,10 l-30,0 z"/><animate id="yellow_map_2" fill="freeze" attributeName="d" attributeType="XML" begin="yellow_map.end" dur="100ms" from="M110,88 l30,0 l0,10 l-30,0 z" to="M118,110 l15,0 l0,20 l-15,0 z"/><animate id="yellow_map_3" fill="freeze" attributeName="d" attributeType="XML" begin="yellow_map_2.end" dur="500ms" from="M118,110 l15,0 l0,20 l-15,0 z" to="M118,220 l15,0 l0,20 l-15,0 z"/></path><path fill="green" stroke="#963" stroke-width="3" d="M110,0 l30,0 l0,10 l-30,0 z"><animate id="green_map" fill="freeze" attributeName="d" attributeType="XML" begin="1000ms;green_map_3.end+2000ms" dur="400ms" from="M110,0 l30,0 l0,10 l-30,0 z" to="M110,88 l30,0 l0,10 l-30,0 z"/><animate id="green_map_2" fill="freeze" attributeName="d" attributeType="XML" begin="green_map.end" dur="100ms" from="M110,88 l30,0 l0,10 l-30,0 z" to="M118,110 l15,0 l0,20 l-15,0 z"/><animate id="green_map_3" fill="freeze" attributeName="d" attributeType="XML" begin="green_map_2.end" dur="500ms" from="M118,110 l15,0 l0,20 l-15,0 z" to="M118,220 l15,0 l0,20 l-15,0 z"/></path><path fill="#00f" stroke="#963" stroke-width="3" d="M110,0 l30,0 l0,10 l-30,0 z"><animate id="blue_map" fill="freeze" attributeName="d" attributeType="XML" begin="2000ms;blue_map_3.end+2000ms" dur="400ms" from="M110,0 l30,0 l0,10 l-30,0 z" to="M110,88 l30,0 l0,10 l-30,0 z"/><animate id="blue_map_2" fill="freeze" attributeName="d" attributeType="XML" begin="blue_map.end" dur="100ms" from="M110,88 l30,0 l0,10 l-30,0 z" to="M118,110 l15,0 l0,20 l-15,0 z"/><animate id="blue_map_3" fill="freeze" attributeName="d" attributeType="XML" begin="blue_map_2.end" dur="500ms" from="M118,110 l15,0 l0,20 l-15,0 z" to="M118,220 l15,0 l0,20 l-15,0 z"/></path><path fill="#CCC" stroke="#333" stroke-width="3" d="M95,0 l60,0 l0,20 l-60,0 z"/><path fill="#CCC" stroke="#333" stroke-width="3" d="M95,220 l60,0 l0,20 l-60,0 z"/><path fill="#00f" stroke="#ff0" stroke-width="3" d="M10,100 l40,0 l0,-20 l20,0 l0,80 l-20,0 l0,-20 l-40,0"><animate id="left_close" fill="freeze" attributeName="d" attributeType="XML" begin="300ms;left_open.end+300ms" dur="200ms" from="M10,100 l40,0 l0,-20 l20,0 l0,80 l-20,0 l0,-20 l-40,0" to="M10,100 l88,0 l0,-20 l20,0 l0,80 l-20,0 l0,-20 l-88,0"/><animate id="left_open" fill="freeze" attributeName="d" attributeType="XML" begin="left_close.end" dur="500ms" from="M10,100 l88,0 l0,-20 l20,0 l0,80 l-20,0 l0,-20 l-88,0" to="M10,100 l40,0 l0,-20 l20,0 l0,80 l-20,0 l0,-20 l-40,0"/></path><path fill="#00f" stroke="#ff0" stroke-width="3" d="M240,100 l-40,0 l0,-20 l-20,0 l0,80 l20,0 l0,-20 l40,0"><animate id="right_close" fill="freeze" attributeName="d" attributeType="XML" begin="300ms;left_open.end+300ms" dur="200ms" from="M240,100 l-40,0 l0,-20 l-20,0 l0,80 l20,0 l0,-20 l40,0" to="M240,100 l-88,0 l0,-20 l-20,0 l0,80 l20,0 l0,-20 l88,0"/><animate id="right_open" fill="freeze" attributeName="d" attributeType="XML" begin="left_close.end" dur="500ms" from="M240,100 l-88,0 l0,-20 l-20,0 l0,80 l20,0 l0,-20 l88,0" to="M240,100 l-40,0 l0,-20 l-20,0 l0,80 l20,0 l0,-20 l40,0"/></path></g></svg>